<svg width="60" height="60" viewBox="0 0 60 60" fill="none" xmlns="http://www.w3.org/2000/svg">
<path d="M39.5547 33.9779H1.11572C0.897779 33.9779 0.694283 33.8703 0.572186 33.6904C0.450089 33.5105 0.425144 33.2814 0.505229 33.0786L8.03916 14.1575C8.13828 13.908 8.38051 13.7439 8.64899 13.7439H41.2654C41.5339 13.7439 41.7754 13.908 41.8752 14.1575L46.6659 26.1893C46.8005 26.526 46.6357 26.9081 46.299 27.042C45.9629 27.1759 45.5795 27.0118 45.4462 26.6751L40.8203 15.0568H9.09471L2.08396 32.6651H39.5547C39.9177 32.6651 40.2112 32.9585 40.2112 33.3215C40.2112 33.6845 39.9171 33.9779 39.5547 33.9779Z" fill="#FF7029"/>
<path d="M24.9572 33.9782C24.5949 33.9782 24.3008 33.6847 24.3008 33.3217V14.4006C24.3008 14.0382 24.5949 13.7441 24.9572 13.7441C25.3196 13.7441 25.6137 14.0382 25.6137 14.4006V33.3217C25.6137 33.6841 25.3196 33.9782 24.9572 33.9782Z" fill="#FF7029"/>
<path d="M12.9033 33.9781C12.8613 33.9781 12.818 33.9741 12.7747 33.9649C12.4189 33.8947 12.1885 33.5488 12.2587 33.193L16.0253 14.2718C16.0962 13.9167 16.4402 13.6869 16.7973 13.7559C17.1531 13.8268 17.3835 14.1727 17.3133 14.5278L13.5466 33.449C13.4849 33.7615 13.2105 33.9781 12.9033 33.9781Z" fill="#FF7029"/>
<path d="M37.0119 33.9782C36.7047 33.9782 36.431 33.7622 36.3693 33.4497L32.6027 14.5286C32.5318 14.1728 32.7622 13.8275 33.118 13.7566C33.4777 13.6877 33.8184 13.9168 33.8899 14.2726L37.6566 33.1937C37.7275 33.5495 37.4971 33.8948 37.1413 33.9657C37.0973 33.9742 37.054 33.9782 37.0119 33.9782Z" fill="#FF7029"/>
<path d="M45.0327 24.517H4.883C4.52065 24.517 4.22656 24.2229 4.22656 23.8605C4.22656 23.4982 4.52065 23.2041 4.883 23.2041H45.0327C45.3957 23.2041 45.6891 23.4982 45.6891 23.8605C45.6891 24.2229 45.3957 24.517 45.0327 24.517Z" fill="#FF7029"/>
<path d="M39.3818 38.0704H1.11542C0.753068 38.0704 0.458984 37.777 0.458984 37.414V33.3217C0.458984 32.9587 0.753068 32.6653 1.11542 32.6653H39.5544C39.9174 32.6653 40.2109 32.9587 40.2109 33.3217C40.2109 33.6847 39.9174 33.9782 39.5544 33.9782H1.77186V36.7575H39.3818C39.7448 36.7575 40.0382 37.0509 40.0382 37.414C40.0382 37.777 39.7448 38.0704 39.3818 38.0704Z" fill="#FF7029"/>
<path d="M28.7573 42.1631H21.1584C20.796 42.1631 20.502 41.8697 20.502 41.5066V37.4138C20.502 37.0508 20.796 36.7573 21.1584 36.7573H28.7573C29.1197 36.7573 29.4137 37.0508 29.4137 37.4138V41.5066C29.4137 41.8697 29.1197 42.1631 28.7573 42.1631ZM21.8148 40.8502H28.1009V38.0702H21.8148V40.8502Z" fill="#FF7029"/>
<path d="M32.5237 46.2566H17.3908C17.0285 46.2566 16.7344 45.9632 16.7344 45.6002V43.1667C16.7344 41.89 17.7735 40.8508 19.0503 40.8508H30.8642C32.141 40.8508 33.1794 41.89 33.1794 43.1667V45.6002C33.1801 45.9625 32.886 46.2566 32.5237 46.2566ZM18.0472 44.9437H31.8666V43.1667C31.8666 42.6134 31.4163 42.1637 30.8642 42.1637H19.0509C18.4976 42.1637 18.0479 42.614 18.0479 43.1667V44.9437H18.0472Z" fill="#FF7029"/>
<path d="M49.0633 46.2568C43.2873 46.2568 38.5879 41.5573 38.5879 35.7813C38.5879 30.0053 43.2873 25.3059 49.0633 25.3059C54.8393 25.3059 59.5387 30.0047 59.5387 35.7813C59.5387 41.5567 54.8393 46.2568 49.0633 46.2568ZM49.0633 26.6181C44.0114 26.6181 39.9008 30.7287 39.9008 35.7807C39.9008 40.8326 44.0114 44.9432 49.0633 44.9432C54.1153 44.9432 58.2259 40.8333 58.2259 35.7813C58.2259 30.7294 54.1153 26.6181 49.0633 26.6181Z" fill="#FF7029"/>
<path d="M54.7026 44.4678C54.5332 44.4678 54.3652 44.4022 54.2385 44.2755L49.4714 39.5084C47.9695 39.8327 46.4105 39.3804 45.3155 38.2842C44.0827 37.0507 43.6685 35.191 44.26 33.546C44.3361 33.3346 44.5153 33.1764 44.7346 33.1272C44.9571 33.076 45.1843 33.1449 45.3425 33.3038L47.812 35.7726L49.0553 35.6164L49.2122 34.3724L46.7426 31.9036C46.5838 31.7447 46.5168 31.5156 46.5661 31.2964C46.6146 31.0765 46.7722 30.8979 46.9842 30.8211C48.6292 30.2303 50.4889 30.6432 51.7224 31.876C52.8186 32.9723 53.2696 34.5339 52.9473 36.0319L57.6894 40.774C57.9113 40.9959 57.9454 41.3432 57.7708 41.6038C57.054 42.6731 56.1487 43.5961 55.08 44.3483C54.9658 44.4284 54.8339 44.4678 54.7026 44.4678ZM49.6697 38.122C49.841 38.122 50.0091 38.1896 50.1338 38.3144L54.765 42.9455C55.3702 42.4657 55.9065 41.9182 56.368 41.3103L51.7532 36.6956C51.5806 36.5229 51.5182 36.2702 51.5904 36.0372C51.9456 34.891 51.6403 33.6523 50.7942 32.8055C50.1955 32.2069 49.3881 31.8806 48.5642 31.8688L50.3675 33.672C50.5112 33.8158 50.5802 34.0167 50.5546 34.2188L50.2933 36.286C50.2552 36.5827 50.0215 36.817 49.7242 36.8544L47.6577 37.115C47.4568 37.1367 47.2547 37.0711 47.1116 36.928L45.3077 35.1247C45.3201 35.9499 45.647 36.7566 46.2451 37.3553C47.0912 38.2021 48.3292 38.506 49.4767 38.1509C49.5391 38.1319 49.6047 38.122 49.6697 38.122Z" fill="#FF7029"/>
</svg>
