<svg width="60" height="60" viewBox="0 0 60 60" fill="none" xmlns="http://www.w3.org/2000/svg">
<g clip-path="url(#clip0_976_80)">
<path d="M58.9999 57.0012H48.6093L46.0086 29.2994C51.861 32.3695 55.9221 33.9323 58.1058 33.9323C58.9642 33.9323 59.5365 33.6935 59.8188 33.215C61.1218 30.929 53.9414 25.8774 47.5558 21.9706C47.318 21.437 46.9899 20.954 46.5904 20.5382C46.426 12.8925 45.6639 3.99731 42.9999 3.99731C40.3233 3.99731 39.5668 12.8655 39.4098 20.5209C38.9954 20.9483 38.6557 21.4474 38.4138 22.0002C32.0498 25.8881 24.8916 30.9183 26.1858 33.2228C26.4637 33.6999 27.0301 33.9382 27.8832 33.9382C30.0523 33.9382 34.0951 32.3793 39.9241 29.3123L36.806 57.0012H21.7232L20.3878 52.997H33.0003C33.007 52.9966 33.0129 52.9961 33.0203 52.997C33.5726 52.997 34.0203 52.5492 34.0203 51.997C34.0203 51.8548 33.9905 51.7201 33.9373 51.5976L30.9757 37.7891C30.877 37.3276 30.4698 36.9985 29.9981 36.9985H4.00174C3.53003 36.9985 3.12278 37.3276 3.0241 37.7891L0.0225015 51.7876C-0.0410183 52.0826 0.0322286 52.3907 0.222202 52.6255C0.412175 52.8604 0.697779 52.9971 1.00003 52.9971H13.6123L12.2767 57.0014H1.00003C0.447685 57.0014 0 57.4492 0 58.0014C0 58.5536 0.447802 59.0014 1.00003 59.0014H12.9944C12.9953 59.0014 12.9963 59.0019 12.9974 59.0019C12.9985 59.0019 12.9995 59.0014 13.0004 59.0014H20.9991C21.0002 59.0014 21.0012 59.0019 21.0023 59.0019C21.0032 59.0019 21.0043 59.0014 21.0053 59.0014H59C59.5523 59.0014 60 58.5536 60 58.0014C60 57.4492 59.5522 57.0012 58.9999 57.0012ZM47.9355 24.5631C53.3486 27.9856 56.5756 30.669 57.6327 31.9557C56.1486 31.709 52.5973 30.508 46.6496 27.3809C47.3534 26.621 47.811 25.6453 47.9355 24.5631ZM28.3725 31.9537C29.432 30.6653 32.6536 27.9883 38.0518 24.5805C38.1787 25.6511 38.6325 26.6161 39.3275 27.3705C33.4032 30.4972 29.859 31.7029 28.3725 31.9537ZM30.6913 46L31.7628 50.997H23.8705L23.1563 46H30.6913ZM29.1899 38.9987L30.2623 44H22.8705L22.1557 38.9987H29.1899ZM13.8642 38.9987H20.1356L20.8504 44H13.1494L13.8642 38.9987ZM10.1292 50.997H2.23749L3.30889 46H10.8435L10.1292 50.997ZM11.1293 44H3.73758L4.8098 38.9987H11.844L11.1293 44ZM12.1493 50.997L12.8634 46H21.1362L21.8504 50.997H12.1493ZM14.3853 57.0012L15.721 52.997H18.2791L19.6145 57.0012H14.3853ZM42.9984 6.50927C43.6025 8.11285 44.3315 12.479 44.5545 19.2694C44.0603 19.1054 43.5416 18.9949 42.993 18.9949C42.4486 18.9949 41.934 19.1041 41.4431 19.2657C41.6585 12.48 42.3904 8.11332 42.9984 6.50927ZM42.993 20.995C44.6469 20.995 45.9927 22.3408 45.9927 23.9952C45.9927 25.6497 44.647 26.9959 42.993 26.9959C41.3386 26.9959 39.9928 25.6497 39.9928 23.9952C39.9928 22.3408 41.3386 20.995 42.993 20.995ZM38.8186 57.0012L41.984 28.8934C42.31 28.9604 42.6474 28.9961 42.993 28.9961C43.3248 28.9961 43.6481 28.9601 43.962 28.8981L46.6005 57.0012H38.8186Z" fill="#F26722"/>
<path d="M13 21.9921C17.4095 21.9921 20.9966 18.4046 20.9966 13.9951C20.9966 9.58564 17.4095 5.99854 13 5.99854C8.59101 5.99854 5.00391 9.58564 5.00391 13.9951C5.00391 18.4046 8.59101 21.9921 13 21.9921ZM13 7.99859C16.3063 7.99859 18.9965 10.6887 18.9965 13.9951C18.9965 17.302 16.3064 19.9921 13 19.9921C9.69358 19.9921 7.00396 17.302 7.00396 13.9951C7.00407 10.6887 9.6937 7.99859 13 7.99859Z" fill="#F26722"/>
<path d="M13 4.99708C13.5524 4.99708 14.0001 4.54928 14.0001 3.99706V1.99783C14.0001 1.44549 13.5522 0.997803 13 0.997803C12.4478 0.997803 12 1.44561 12 1.99783V3.99694C12 4.54928 12.4477 4.99708 13 4.99708Z" fill="#F26722"/>
<path d="M12 24.0008V25.9999C12 26.5522 12.4478 26.9999 13 26.9999C13.5522 26.9999 14.0001 26.5521 14.0001 25.9999V24.0008C14.0001 23.4484 13.5522 23.0007 13 23.0007C12.4478 23.0007 12 23.4484 12 24.0008Z" fill="#F26722"/>
<path d="M22 13.999C22 14.5514 22.4478 14.9991 23 14.9991H24.9991C25.5515 14.9991 25.9992 14.5513 25.9992 13.999C25.9992 13.4467 25.5514 12.999 24.9991 12.999H23C22.4478 12.999 22 13.4468 22 13.999Z" fill="#F26722"/>
<path d="M1.00003 14.9991H2.99914C3.55148 14.9991 3.99916 14.5513 3.99916 13.999C3.99916 13.4467 3.55136 12.999 2.99914 12.999H1.00003C0.447685 12.999 0 13.4468 0 13.999C0 14.5514 0.447802 14.9991 1.00003 14.9991Z" fill="#F26722"/>
<path d="M20.0724 7.92644C20.3282 7.92644 20.5846 7.82882 20.7794 7.63345L22.1926 6.21985C22.5832 5.82924 22.5832 5.1958 22.1926 4.80565C21.8019 4.41504 21.168 4.41504 20.7784 4.80565L19.3652 6.21926C18.9746 6.60987 18.9746 7.24331 19.3652 7.63345C19.5606 7.82882 19.8164 7.92644 20.0724 7.92644Z" fill="#F26722"/>
<path d="M5.22172 20.3643L3.80858 21.7779C3.41797 22.1686 3.41797 22.802 3.80858 23.1921C4.00395 23.3875 4.25978 23.4851 4.51562 23.4851C4.77146 23.4851 5.02788 23.3875 5.22266 23.1921L6.6358 21.7785C7.02641 21.3879 7.02641 20.7545 6.6358 20.3643C6.24519 19.9736 5.61139 19.9736 5.22172 20.3643Z" fill="#F26722"/>
<path d="M20.7794 20.3642C20.3888 19.9736 19.756 19.9736 19.3652 20.3642C18.9746 20.7544 18.9746 21.3877 19.3652 21.7784L20.7784 23.192C20.9737 23.3874 21.2296 23.485 21.4854 23.485C21.7412 23.485 21.9972 23.3874 22.1924 23.192C22.583 22.8019 22.583 22.1686 22.1924 21.7779L20.7794 20.3642Z" fill="#F26722"/>
<path d="M5.22184 7.63345C5.4172 7.82882 5.67304 7.92644 5.92888 7.92644C6.18471 7.92644 6.44067 7.82882 6.63591 7.63345C7.02653 7.24331 7.02653 6.60999 6.63591 6.21926L5.22278 4.80565C4.83216 4.41504 4.19931 4.41504 3.80858 4.80565C3.41797 5.1958 3.41797 5.82912 3.80858 6.21985L5.22184 7.63345Z" fill="#F26722"/>
</g>
<defs>
<clipPath id="clip0_976_80">
<rect width="60" height="60" fill="white"/>
</clipPath>
</defs>
</svg>
