<svg width="60" height="60" viewBox="0 0 60 60" fill="none" xmlns="http://www.w3.org/2000/svg">
<g clip-path="url(#clip0_976_122)">
<path d="M55.942 32.1831C55.5472 31.7882 55.0784 31.4749 54.5626 31.2612C54.0467 31.0475 53.4938 30.9375 52.9354 30.9375C52.377 30.9375 51.824 31.0475 51.3082 31.2612C50.7923 31.4749 50.3236 31.7882 49.9288 32.1831L42.6504 39.4615C42.3311 38.8703 41.8584 38.3762 41.282 38.031C40.7056 37.6858 40.0469 37.5024 39.375 37.5H28.7284C27.8118 36.3907 26.6736 35.4851 25.3867 34.8414C24.0998 34.1976 22.6925 33.8298 21.2552 33.7616C19.8178 33.6933 18.3821 33.9262 17.04 34.4452C15.6979 34.9641 14.479 35.7578 13.4615 36.7753L9.37503 40.8618L8.16284 39.6497C8.07582 39.5626 7.97248 39.4935 7.85875 39.4464C7.74502 39.3993 7.62311 39.375 7.5 39.375C7.37689 39.375 7.25499 39.3993 7.14126 39.4464C7.02752 39.4935 6.92419 39.5626 6.83716 39.6497L3.08716 43.3997C3.00009 43.4867 2.93101 43.59 2.88388 43.7038C2.83676 43.8175 2.8125 43.9394 2.8125 44.0625C2.8125 44.1856 2.83676 44.3075 2.88388 44.4213C2.93101 44.535 3.00009 44.6383 3.08716 44.7254L18.0872 59.7254C18.1742 59.8124 18.2775 59.8815 18.3913 59.9286C18.505 59.9758 18.6269 60 18.75 60C18.8731 60 18.995 59.9758 19.1088 59.9286C19.2225 59.8815 19.3258 59.8124 19.4128 59.7254L23.1628 55.9754C23.2499 55.8883 23.319 55.785 23.3661 55.6713C23.4132 55.5575 23.4375 55.4356 23.4375 55.3125C23.4375 55.1894 23.4132 55.0675 23.3661 54.9538C23.319 54.84 23.2499 54.7367 23.1628 54.6497L21.9507 53.4375L23.0022 52.386C23.5309 51.8606 24.2454 51.5647 24.9907 51.5625H38.6925C39.9242 51.5659 41.1444 51.325 42.2823 50.8536C43.4203 50.3822 44.4534 49.6898 45.3219 48.8164L55.942 38.1963C56.3368 37.8015 56.6501 37.3327 56.8638 36.8169C57.0775 36.301 57.1875 35.7481 57.1875 35.1897C57.1875 34.6313 57.0775 34.0783 56.8638 33.5625C56.6501 33.0466 56.3368 32.5779 55.942 32.1831ZM18.75 57.7368L5.07571 44.0625L7.50003 41.6382L21.1744 55.3125L18.75 57.7368ZM54.6163 36.8706L43.9962 47.4907C43.3013 48.1893 42.4748 48.7432 41.5644 49.1203C40.654 49.4974 39.6779 49.6902 38.6925 49.6875H24.9907C24.375 49.6858 23.765 49.8063 23.1961 50.0419C22.6272 50.2776 22.1107 50.6237 21.6765 51.0603L20.625 52.1118L10.7007 42.1875L14.7872 38.101C15.6309 37.2574 16.6436 36.602 17.7586 36.1777C18.8737 35.7534 20.066 35.5699 21.2571 35.6393C22.4481 35.7087 23.611 36.0294 24.6693 36.5803C25.7275 37.1312 26.6572 37.8999 27.3972 38.8358L27.5414 39.0184C27.6291 39.1296 27.7409 39.2194 27.8683 39.2812C27.9957 39.3429 28.1354 39.375 28.277 39.375H39.375C39.8723 39.375 40.3492 39.5725 40.7009 39.9242C41.0525 40.2758 41.25 40.7527 41.25 41.25C41.25 41.7473 41.0525 42.2242 40.7009 42.5758C40.3492 42.9275 39.8723 43.125 39.375 43.125H26.25C26.0014 43.125 25.7629 43.2238 25.5871 43.3996C25.4113 43.5754 25.3125 43.8139 25.3125 44.0625C25.3125 44.3111 25.4113 44.5496 25.5871 44.7254C25.7629 44.9012 26.0014 45 26.25 45H39.375C40.2921 44.9971 41.1761 44.6576 41.8594 44.0459C42.5426 43.4342 42.9775 42.593 43.0814 41.6818L51.2545 33.5087C51.7073 33.0764 52.3093 32.8351 52.9354 32.8351C53.5615 32.8351 54.1635 33.0764 54.6163 33.5087C54.837 33.7295 55.0122 33.9915 55.1316 34.2799C55.2511 34.5683 55.3126 34.8774 55.3126 35.1896C55.3126 35.5018 55.2511 35.8109 55.1316 36.0993C55.0122 36.3877 54.837 36.6498 54.6163 36.8706Z" fill="#FF7029"/>
<path d="M18.51 19.1042C18.4969 19.1225 18.4772 19.1329 18.4653 19.1525C18.4622 19.1575 18.4624 19.1634 18.4594 19.1686C15.6081 22.79 14.0593 27.2659 14.0625 31.8751C14.0625 32.0284 14.0634 32.1809 14.074 32.3338C14.0904 32.5704 14.196 32.792 14.3694 32.9539C14.5427 33.1158 14.771 33.206 15.0082 33.2063C15.0302 33.2063 15.0522 33.2053 15.0742 33.204C15.197 33.1955 15.3169 33.1628 15.4271 33.1079C15.5373 33.0531 15.6357 32.977 15.7165 32.8841C15.7973 32.7912 15.859 32.6834 15.8981 32.5666C15.9372 32.4499 15.9529 32.3266 15.9444 32.2038C15.9366 32.0939 15.9375 31.9845 15.9375 31.8751C15.9383 27.9346 17.1889 24.0959 19.5093 20.9111C22.1606 22.6422 23.7124 24.3147 23.7763 25.5607C23.6782 26.7459 23.3038 27.8916 22.6831 28.906C22.4071 29.4759 22.1173 30.0756 21.85 30.7179C21.8027 30.8315 21.7782 30.9534 21.778 31.0765C21.7778 31.1997 21.8019 31.3216 21.8488 31.4355C21.9436 31.6654 22.1258 31.8482 22.3554 31.9437C22.469 31.9911 22.5909 32.0155 22.7141 32.0157C22.8372 32.0159 22.9592 31.9919 23.073 31.945C23.3029 31.8502 23.4857 31.668 23.5813 31.4384C23.8344 30.8305 24.1095 30.2628 24.3709 29.7231C25.1493 28.433 25.5887 26.9669 25.6485 25.4614C25.5516 23.5704 23.8721 21.5485 20.6889 19.4445C22.1243 17.8197 23.8291 16.4545 25.7285 15.4092C27.5545 18.9673 29.7516 20.8453 32.1506 20.8453C32.3251 20.8453 32.4995 20.8355 32.6729 20.816C34.335 20.7101 35.9213 20.0827 37.2061 19.0229C38.0315 18.3848 38.3734 18.1211 40.2658 18.7821C42.0333 19.3975 43.8965 18.626 45.5844 16.624C47.0455 17.6708 48.3486 18.9219 49.4539 20.3392C48.3254 21.5444 47.4373 22.954 46.8375 24.4923C46.0378 26.2382 45.4972 27.3135 44.5029 27.4069C43.8571 27.447 43.2093 27.4443 42.5638 27.3986C40.0901 27.2768 37.0134 27.1327 34.8157 31.453C34.3174 32.4265 33.9825 33.4754 33.8247 34.5576C33.7902 34.8038 33.8549 35.0536 34.0046 35.2521C34.1544 35.4506 34.3768 35.5814 34.623 35.6159C34.6665 35.6221 34.7104 35.6252 34.7543 35.6251C34.9802 35.6248 35.1984 35.5429 35.3687 35.3946C35.5391 35.2462 35.6501 35.0413 35.6813 34.8176C35.8088 33.9395 36.0815 33.0888 36.4883 32.3003C38.1345 29.0639 40.0516 29.1587 42.4745 29.2713C43.2072 29.3226 43.9426 29.3235 44.6754 29.2741C46.8018 29.0736 47.6866 27.1413 48.5422 25.2728C49.0268 24.0468 49.7054 22.9069 50.5522 21.8966C51.806 23.8807 52.6728 26.0844 53.1066 28.391C53.1291 28.5121 53.1752 28.6276 53.2424 28.7309C53.3095 28.8341 53.3964 28.9231 53.498 28.9928C53.5996 29.0625 53.7139 29.1114 53.8344 29.1369C53.9549 29.1624 54.0792 29.1638 54.2003 29.1412C54.3214 29.1186 54.4368 29.0724 54.54 29.0051C54.6432 28.9379 54.7322 28.8509 54.8017 28.7493C54.8713 28.6476 54.9202 28.5333 54.9455 28.4127C54.9709 28.2922 54.9722 28.1679 54.9495 28.0468C54.0864 23.4856 51.7085 19.3495 48.2012 16.3085C44.6938 13.2675 40.2625 11.4997 35.625 11.2917V10.2558C35.6251 9.73077 35.7728 9.21632 36.0512 8.77119C36.3297 8.32607 36.7277 7.96819 37.1998 7.7384C37.7214 8.34616 38.3681 8.83401 39.0958 9.16857C39.8235 9.50312 40.6148 9.67647 41.4157 9.67675C42.1752 9.67024 42.928 9.53496 43.6423 9.27666C44.8381 8.85809 45.9722 8.28073 47.0142 7.56008C47.4653 7.1552 48.0202 6.88395 48.6168 6.77674C49.2135 6.66953 49.8281 6.73059 50.392 6.95308C50.5819 7.00179 50.7823 6.98975 50.965 6.91865C51.1477 6.84755 51.3035 6.72097 51.4105 6.55671C51.5175 6.39245 51.5703 6.19878 51.5615 6.00293C51.5528 5.80709 51.4828 5.61892 51.3615 5.4649C51.1606 5.20943 46.387 -0.770341 41.792 0.0852213C37.3566 0.911946 36.8371 3.60216 36.6208 5.93516C35.8517 6.26101 35.1841 6.78725 34.6876 7.459C34.191 6.78713 33.5234 6.26079 32.7541 5.93487C32.5378 3.60195 32.0183 0.91189 27.583 0.0852213C22.9875 -0.774916 18.2144 5.20989 18.0135 5.46486C17.8922 5.61888 17.8222 5.80705 17.8134 6.00289C17.8047 6.19874 17.8575 6.39241 17.9645 6.55667C18.0715 6.72093 18.2273 6.84751 18.41 6.91861C18.5927 6.98971 18.7931 7.00176 18.983 6.95305C19.5468 6.73043 20.1615 6.6693 20.7582 6.77651C21.3548 6.88373 21.9098 7.15505 22.3608 7.56004C23.4028 8.2807 24.5369 8.85807 25.7327 9.27664C26.4469 9.5352 27.1998 9.67049 27.9593 9.67673C28.7602 9.67642 29.5516 9.50304 30.2792 9.16847C31.0069 8.8339 31.6537 8.34603 32.1753 7.73827C32.6474 7.96808 33.0454 8.32599 33.3238 8.77114C33.6022 9.21629 33.7499 9.73075 33.75 10.2558V11.2739C30.7961 11.4063 27.9055 12.1744 25.2754 13.5258C22.6453 14.8771 20.3377 16.7798 18.51 19.1042ZM42.1353 1.92818C44.1893 1.54228 46.6447 3.32619 48.3165 4.92332C47.4691 5.09944 46.6724 5.46484 45.986 5.9922C45.0709 6.62875 44.0736 7.1383 43.0216 7.50694C42.3727 7.79001 41.6581 7.88763 40.9572 7.78895C40.2562 7.69027 39.5964 7.39915 39.0509 6.94796L41.5288 5.90798C41.6426 5.86056 41.746 5.79114 41.833 5.70369C41.92 5.61625 41.9888 5.5125 42.0356 5.39839C42.0825 5.28428 42.1063 5.16205 42.1058 5.03872C42.1053 4.91538 42.0804 4.79336 42.0326 4.67965C41.9849 4.56593 41.9152 4.46276 41.8275 4.37605C41.7397 4.28933 41.6358 4.22077 41.5215 4.17431C41.4073 4.12784 41.285 4.10437 41.1617 4.10526C41.0383 4.10614 40.9164 4.13135 40.8028 4.17945L38.6072 5.1011C38.8677 3.49745 39.5261 2.41478 42.1353 1.92818ZM26.3534 7.50694C25.3014 7.1383 24.3042 6.62875 23.389 5.9922C22.702 5.46404 21.9043 5.09844 21.0558 4.92289C22.7248 3.3253 25.1729 1.54414 27.2397 1.9282C29.8489 2.41468 30.5071 3.49757 30.7677 5.10096L28.5722 4.17945C28.4587 4.13178 28.337 4.10693 28.2139 4.10632C28.0908 4.10572 27.9688 4.12936 27.8548 4.1759C27.7408 4.22245 27.6372 4.29099 27.5497 4.3776C27.4622 4.46421 27.3926 4.56721 27.345 4.68071C27.2973 4.7942 27.2725 4.91598 27.2718 5.03907C27.2712 5.16217 27.2949 5.28419 27.3414 5.39815C27.388 5.51211 27.4565 5.61579 27.5431 5.70326C27.6297 5.79074 27.7327 5.8603 27.8462 5.90797L30.3245 6.948C29.7788 7.39893 29.1189 7.68986 28.418 7.78853C27.717 7.88719 27.0024 7.78972 26.3534 7.50694ZM40.8838 17.0115C38.2306 16.0859 37.2505 16.6192 36.0594 17.5393C35.0455 18.3861 33.7846 18.8819 32.4655 18.9524C30.2443 19.207 28.4565 16.6313 27.405 14.5977C30.0618 13.4776 32.941 12.9854 35.8189 13.1592C38.6968 13.333 41.4959 14.1681 43.9986 15.5996C43.1861 16.5144 42.0401 17.4155 40.8838 17.0115Z" fill="#FF7029"/>
</g>
<defs>
<clipPath id="clip0_976_122">
<rect width="60" height="60" fill="white"/>
</clipPath>
</defs>
</svg>
