<svg width="71" height="71" viewBox="0 0 71 71" fill="none" xmlns="http://www.w3.org/2000/svg">
<path d="M46.8072 40.207H1.32108C1.06319 40.207 0.822382 40.0796 0.677901 39.8668C0.533419 39.654 0.503901 39.3829 0.598669 39.1428L9.51382 16.7528C9.63112 16.4576 9.91775 16.2634 10.2355 16.2634H48.8315C49.1492 16.2634 49.4351 16.4576 49.5532 16.7528L55.2221 30.9905C55.3814 31.389 55.1864 31.8411 54.7879 31.9995C54.3902 32.158 53.9366 31.9638 53.7789 31.5653L48.3049 17.817H10.7629L2.46683 38.6535H46.8072C47.2368 38.6535 47.584 39.0007 47.584 39.4302C47.584 39.8598 47.236 40.207 46.8072 40.207Z" fill="#4AAB3D"/>
<path d="M29.5336 40.2073C29.1048 40.2073 28.7568 39.8601 28.7568 39.4305V17.0405C28.7568 16.6117 29.1048 16.2637 29.5336 16.2637C29.9624 16.2637 30.3104 16.6117 30.3104 17.0405V39.4305C30.3104 39.8593 29.9624 40.2073 29.5336 40.2073Z" fill="#4AAB3D"/>
<path d="M15.2709 40.2073C15.2212 40.2073 15.1699 40.2026 15.1186 40.1917C14.6976 40.1086 14.425 39.6992 14.5081 39.2782L18.9653 16.8882C19.0492 16.4679 19.4562 16.1961 19.8788 16.2776C20.2998 16.3615 20.5724 16.7709 20.4893 17.1911L16.0321 39.5812C15.9591 39.9509 15.6344 40.2073 15.2709 40.2073Z" fill="#4AAB3D"/>
<path d="M43.7973 40.2072C43.4337 40.2072 43.1098 39.9517 43.0368 39.5819L38.5796 17.1919C38.4957 16.7709 38.7684 16.3623 39.1894 16.2784C39.6151 16.1968 40.0182 16.4679 40.1029 16.8889L44.5601 39.279C44.644 39.7 44.3713 40.1086 43.9503 40.1925C43.8983 40.2026 43.847 40.2072 43.7973 40.2072Z" fill="#4AAB3D"/>
<path d="M53.2892 29.0116H5.77874C5.34995 29.0116 5.00195 28.6636 5.00195 28.2348C5.00195 27.806 5.34995 27.458 5.77874 27.458H53.2892C53.7188 27.458 54.066 27.806 54.066 28.2348C54.066 28.6636 53.7188 29.0116 53.2892 29.0116Z" fill="#4AAB3D"/>
<path d="M46.6026 45.0498H1.32073C0.891945 45.0498 0.543945 44.7026 0.543945 44.2731V39.4306C0.543945 39.001 0.891945 38.6538 1.32073 38.6538H46.8069C47.2365 38.6538 47.5837 39.001 47.5837 39.4306C47.5837 39.8602 47.2365 40.2074 46.8069 40.2074H2.09751V43.4963H46.6026C47.0322 43.4963 47.3794 43.8435 47.3794 44.2731C47.3794 44.7026 47.0322 45.0498 46.6026 45.0498Z" fill="#4AAB3D"/>
<path d="M34.0296 49.8929H25.0375C24.6087 49.8929 24.2607 49.5457 24.2607 49.1161V44.2729C24.2607 43.8433 24.6087 43.4961 25.0375 43.4961H34.0296C34.4584 43.4961 34.8064 43.8433 34.8064 44.2729V49.1161C34.8064 49.5457 34.4584 49.8929 34.0296 49.8929ZM25.8143 48.3393H33.2528V45.0497H25.8143V48.3393Z" fill="#4AAB3D"/>
<path d="M38.4867 54.7369H20.5795C20.1507 54.7369 19.8027 54.3897 19.8027 53.9601V51.0806C19.8027 49.5697 21.0324 48.3401 22.5432 48.3401H36.523C38.0339 48.3401 39.2627 49.5697 39.2627 51.0806V53.9601C39.2635 54.3889 38.9155 54.7369 38.4867 54.7369ZM21.3563 53.1833H37.7092V51.0806C37.7092 50.4258 37.1763 49.8937 36.523 49.8937H22.544C21.8892 49.8937 21.3571 50.4265 21.3571 51.0806V53.1833H21.3563Z" fill="#4AAB3D"/>
<path d="M58.059 54.7369C51.2241 54.7369 45.6631 49.1759 45.6631 42.341C45.6631 35.5061 51.2241 29.9451 58.059 29.9451C64.8939 29.9451 70.4549 35.5053 70.4549 42.341C70.4549 49.1751 64.8939 54.7369 58.059 54.7369ZM58.059 31.4979C52.0809 31.4979 47.2167 36.3621 47.2167 42.3402C47.2167 48.3183 52.0809 53.1826 58.059 53.1826C64.0371 53.1826 68.9014 48.3191 68.9014 42.341C68.9014 36.3629 64.0371 31.4979 58.059 31.4979Z" fill="#4AAB3D"/>
<path d="M64.7312 52.6202C64.5308 52.6202 64.332 52.5425 64.1821 52.3926L58.541 46.7516C56.7638 47.1353 54.9189 46.6001 53.6232 45.3029C52.1644 43.8433 51.6743 41.6427 52.3742 39.6961C52.4643 39.4459 52.6763 39.2587 52.9358 39.2005C53.1991 39.1399 53.4679 39.2215 53.6551 39.4094L56.5773 42.3309L58.0486 42.146L58.2342 40.674L55.312 37.7526C55.124 37.5646 55.0447 37.2935 55.103 37.034C55.1605 36.7738 55.3469 36.5625 55.5978 36.4716C57.5444 35.7725 59.7451 36.2611 61.2046 37.7199C62.5019 39.0172 63.0355 40.8651 62.6541 42.6378L68.2656 48.2492C68.5282 48.5118 68.5686 48.9227 68.3619 49.2311C67.5137 50.4965 66.4425 51.5886 65.1779 52.4788C65.0427 52.5736 64.8866 52.6202 64.7312 52.6202ZM58.7756 45.111C58.9784 45.111 59.1772 45.191 59.3248 45.3386L64.805 50.8188C65.5212 50.251 66.1559 49.6032 66.7019 48.8839L61.2411 43.4231C61.0369 43.2188 60.9631 42.9197 61.0485 42.644C61.4687 41.2877 61.1075 39.8219 60.1063 38.8199C59.3978 38.1114 58.4424 37.7254 57.4675 37.7114L59.6014 39.8452C59.7715 40.0153 59.853 40.253 59.8227 40.4923L59.5136 42.9384C59.4685 43.2895 59.192 43.5668 58.8401 43.6111L56.3948 43.9194C56.1571 43.9451 55.9178 43.8674 55.7485 43.6981L53.6139 41.5642C53.6287 42.5407 54.0155 43.4953 54.7232 44.2038C55.7244 45.2058 57.1894 45.5655 58.5473 45.1452C58.6211 45.1227 58.6987 45.111 58.7756 45.111Z" fill="#4AAB3D"/>
</svg>
