<svg width="58" height="56" viewBox="0 0 58 56" fill="none" xmlns="http://www.w3.org/2000/svg">
<path d="M20.8682 55.4276C20.5073 55.4276 20.2237 55.144 20.2237 54.7831V44.356H14.8748V54.7831C14.8748 55.144 14.5913 55.4276 14.2304 55.4276C13.8695 55.4276 13.5859 55.144 13.5859 54.7831V44.2787C13.5859 43.6085 14.1015 43.0671 14.7459 43.0671H20.3526C20.997 43.0671 21.5126 43.6085 21.5126 44.2787V54.7831C21.5126 55.1311 21.229 55.4276 20.8682 55.4276Z" fill="#4AAB3D"/>
<path d="M30.8944 55.4275C30.5336 55.4275 30.25 55.144 30.25 54.7831V29.6369C30.25 29.276 30.5336 28.9924 30.8944 28.9924C31.2553 28.9924 31.5389 29.276 31.5389 29.6369V54.7831C31.5389 55.1311 31.2424 55.4275 30.8944 55.4275Z" fill="#4AAB3D"/>
<path d="M53.953 55.4275H5.01387C4.21476 55.4275 3.57031 54.7831 3.57031 53.984V29.6368C3.57031 29.2759 3.85387 28.9924 4.21476 28.9924C4.57565 28.9924 4.8592 29.2759 4.8592 29.6368V53.984C4.8592 54.0742 4.92365 54.1386 5.01387 54.1386H53.953C54.0432 54.1386 54.1076 54.0742 54.1076 53.984V28.6315C54.1076 28.2706 54.3912 27.9871 54.7521 27.9871C55.113 27.9871 55.3965 28.2706 55.3965 28.6315V53.9711C55.3965 54.7702 54.7521 55.4275 53.953 55.4275Z" fill="#4AAB3D"/>
<path d="M18.8437 49.8854C18.6761 49.8854 18.5086 49.821 18.3926 49.6921C18.3668 49.6663 18.341 49.6276 18.3152 49.589C18.2894 49.5503 18.2766 49.5116 18.2508 49.473C18.2379 49.4343 18.225 49.3956 18.2121 49.357C18.1992 49.3183 18.1992 49.2668 18.1992 49.2281C18.1992 49.1894 18.1992 49.1379 18.2121 49.0992C18.225 49.0605 18.2379 49.0219 18.2508 48.9832C18.2637 48.9445 18.2894 48.9059 18.3152 48.8672C18.341 48.8285 18.3668 48.8028 18.3926 48.7641C18.4183 48.7254 18.457 48.7125 18.4957 48.6868C18.5343 48.661 18.573 48.6481 18.6117 48.6223L18.7277 48.5836C18.805 48.5708 18.8952 48.5708 18.9726 48.5836C19.0112 48.5965 19.0499 48.6094 19.0886 48.6223C19.1272 48.6352 19.1659 48.661 19.2046 48.6868C19.2432 48.7125 19.269 48.7383 19.3077 48.7641C19.3334 48.7899 19.3592 48.8285 19.385 48.8672C19.4108 48.9059 19.4237 48.9445 19.4494 48.9832C19.4623 49.0219 19.4752 49.0605 19.4881 49.0992C19.501 49.1379 19.501 49.1765 19.501 49.2281C19.501 49.2668 19.501 49.3054 19.4881 49.357C19.4752 49.3956 19.4623 49.4343 19.4494 49.473C19.4366 49.5116 19.4108 49.5503 19.385 49.589C19.3592 49.6276 19.3334 49.6534 19.3077 49.6921C19.2819 49.7179 19.2432 49.7436 19.2046 49.7694C19.1659 49.7952 19.1272 49.8081 19.0886 49.8339C19.0499 49.8468 19.0112 49.8596 18.9726 49.8725C18.9339 49.8854 18.8952 49.8854 18.8437 49.8854Z" fill="#4AAB3D"/>
<path d="M14.7063 40.2445H8.24894C7.88805 40.2445 7.60449 39.961 7.60449 39.6001V33.1427C7.60449 32.7818 7.88805 32.4983 8.24894 32.4983H14.7063C15.0672 32.4983 15.3507 32.7818 15.3507 33.1427V39.6001C15.3507 39.961 15.0672 40.2445 14.7063 40.2445ZM8.89338 38.9556H14.0618V33.7872H8.89338V38.9556Z" fill="#4AAB3D"/>
<path d="M11.4843 40.2445C11.1234 40.2445 10.8398 39.961 10.8398 39.6001V33.1427C10.8398 32.7818 11.1234 32.4983 11.4843 32.4983C11.8452 32.4983 12.1287 32.7818 12.1287 33.1427V39.6001C12.1287 39.961 11.8323 40.2445 11.4843 40.2445Z" fill="#4AAB3D"/>
<path d="M14.7063 37.0093H8.24894C7.88805 37.0093 7.60449 36.7258 7.60449 36.3649C7.60449 36.004 7.88805 35.7205 8.24894 35.7205H14.7063C15.0672 35.7205 15.3507 36.004 15.3507 36.3649C15.3507 36.7258 15.0672 37.0093 14.7063 37.0093Z" fill="#4AAB3D"/>
<path d="M26.8479 40.2445H20.3905C20.0296 40.2445 19.7461 39.961 19.7461 39.6001V33.1427C19.7461 32.7818 20.0296 32.4983 20.3905 32.4983H26.8479C27.2088 32.4983 27.4923 32.7818 27.4923 33.1427V39.6001C27.4923 39.961 27.2088 40.2445 26.8479 40.2445ZM21.0479 38.9556H26.2163V33.7872H21.0479V38.9556Z" fill="#4AAB3D"/>
<path d="M23.6249 40.2445C23.264 40.2445 22.9805 39.961 22.9805 39.6001V33.1427C22.9805 32.7818 23.264 32.4983 23.6249 32.4983C23.9858 32.4983 24.2694 32.7818 24.2694 33.1427V39.6001C24.2694 39.961 23.9858 40.2445 23.6249 40.2445Z" fill="#4AAB3D"/>
<path d="M26.8479 37.0093H20.3905C20.0296 37.0093 19.7461 36.7258 19.7461 36.3649C19.7461 36.004 20.0296 35.7205 20.3905 35.7205H26.8479C27.2088 35.7205 27.4923 36.004 27.4923 36.3649C27.4923 36.7258 27.2088 37.0093 26.8479 37.0093Z" fill="#4AAB3D"/>
<path d="M32.3 31.003C31.8102 31.003 31.3333 30.8355 30.9467 30.5132L17.5551 19.5706L4.15066 30.5132C3.23555 31.2608 1.86933 31.1319 1.12177 30.2039C0.760883 29.7528 0.593327 29.1986 0.644883 28.6315C0.696438 28.0643 0.979994 27.5488 1.41822 27.175L17.1427 14.3506C17.3747 14.1572 17.7227 14.1572 17.9547 14.3506L33.6662 27.1879C34.1173 27.5488 34.388 28.0643 34.4396 28.6315C34.4911 29.1986 34.3236 29.7657 33.9627 30.2039C33.6018 30.655 33.0862 30.9257 32.5191 30.9772C32.4547 30.9901 32.3773 31.003 32.3 31.003ZM17.5551 18.0883C17.6969 18.0883 17.8387 18.1399 17.9676 18.2301L31.7716 29.5079C31.952 29.6497 32.1711 29.7141 32.4031 29.7012C32.6351 29.6755 32.8413 29.5723 32.9831 29.3919C33.1249 29.2115 33.2022 28.9923 33.1764 28.7603C33.1507 28.5283 33.0476 28.3221 32.8671 28.1803L17.568 15.6781L2.26888 28.1803C2.08844 28.3221 1.98533 28.5283 1.95955 28.7603C1.93377 28.9923 1.99822 29.2115 2.15288 29.3919C2.44933 29.7657 3.00355 29.8172 3.36444 29.5079L17.1427 18.2301C17.2587 18.1399 17.4133 18.0883 17.5551 18.0883Z" fill="#4AAB3D"/>
<path d="M17.5547 29.6885C15.9694 29.6885 14.6934 28.3996 14.6934 26.8272C14.6934 25.2547 15.9822 23.9658 17.5547 23.9658C19.1271 23.9658 20.416 25.2547 20.416 26.8272C20.416 28.3996 19.1271 29.6885 17.5547 29.6885ZM17.5547 25.2418C16.6911 25.2418 15.9822 25.9507 15.9822 26.8143C15.9822 27.6778 16.6911 28.3867 17.5547 28.3867C18.4182 28.3867 19.1271 27.6778 19.1271 26.8143C19.1271 25.9507 18.4182 25.2418 17.5547 25.2418Z" fill="#4AAB3D"/>
<path d="M40.9862 42.848C40.6254 42.848 40.3418 42.5645 40.3418 42.2036V34.1222C40.3418 33.7613 40.6254 33.4778 40.9862 33.4778C41.3471 33.4778 41.6307 33.7613 41.6307 34.1222V42.2036C41.6307 42.5645 41.3471 42.848 40.9862 42.848Z" fill="#4AAB3D"/>
<path d="M44.6464 42.848C44.2855 42.848 44.002 42.5645 44.002 42.2036V34.1222C44.002 33.7613 44.2855 33.4778 44.6464 33.4778C45.0073 33.4778 45.2908 33.7613 45.2908 34.1222V42.2036C45.2908 42.5645 45.0073 42.848 44.6464 42.848Z" fill="#4AAB3D"/>
<path d="M47.9336 42.848H37.6999C37.1456 42.848 36.6816 42.3969 36.6816 41.8298V34.496C36.6816 33.9418 37.1328 33.4778 37.6999 33.4778H47.9336C48.4879 33.4778 48.9519 33.9289 48.9519 34.496V41.8298C48.9519 42.3969 48.4879 42.848 47.9336 42.848ZM37.9834 41.5591H47.663V34.7667H37.9834V41.5591Z" fill="#4AAB3D"/>
<path d="M48.3082 38.8138H37.3398C36.9789 38.8138 36.6953 38.5302 36.6953 38.1693C36.6953 37.8085 36.9789 37.5249 37.3398 37.5249H48.3082C48.6691 37.5249 48.9526 37.8085 48.9526 38.1693C48.9526 38.5302 48.6562 38.8138 48.3082 38.8138Z" fill="#4AAB3D"/>
<path d="M57.5359 29.276H33.7946C33.4337 29.276 33.1502 28.9925 33.1502 28.6316C33.1502 28.2707 33.4337 27.9872 33.7946 27.9872H55.7186L40.4195 15.4849H17.5546C17.1937 15.4849 16.9102 15.2014 16.9102 14.8405C16.9102 14.4796 17.1937 14.196 17.5546 14.196H40.6644C40.819 14.196 40.9608 14.2476 41.0768 14.3378L57.9484 28.1289C58.1546 28.2965 58.2448 28.5929 58.1417 28.8507C58.0515 29.1085 57.8066 29.276 57.5359 29.276Z" fill="#4AAB3D"/>
<path d="M41.619 29.2761C41.4772 29.2761 41.3354 29.2245 41.2066 29.1343L24.335 15.3432C24.0643 15.1241 24.0128 14.7116 24.2448 14.441C24.4639 14.1703 24.8763 14.1187 25.147 14.3507L42.0185 28.1418C42.2892 28.361 42.3408 28.7734 42.1088 29.0441C41.9928 29.1987 41.7994 29.2761 41.619 29.2761Z" fill="#4AAB3D"/>
<path d="M49.5194 29.2761C49.3776 29.2761 49.2358 29.2245 49.1069 29.1343L32.2354 15.3432C31.9647 15.1241 31.9132 14.7116 32.1452 14.441C32.3643 14.1703 32.7767 14.1187 33.0474 14.3507L49.9189 28.1418C50.1896 28.361 50.2412 28.7734 50.0092 29.0441C49.8932 29.1987 49.7127 29.2761 49.5194 29.2761Z" fill="#4AAB3D"/>
<path d="M49.0941 22.3804H25.9843C25.6234 22.3804 25.3398 22.0969 25.3398 21.736C25.3398 21.3751 25.6234 21.0916 25.9843 21.0916H49.0941C49.455 21.0916 49.7385 21.3751 49.7385 21.736C49.7385 22.0969 49.455 22.3804 49.0941 22.3804Z" fill="#4AAB3D"/>
<path d="M43.5909 11.0641C41.4771 11.0641 39.75 9.33699 39.75 7.22321C39.75 5.10944 41.4771 3.38232 43.5909 3.38232C45.7047 3.38232 47.4318 5.10944 47.4318 7.2361C47.4318 9.36277 45.7047 11.0641 43.5909 11.0641ZM43.5909 4.6841C42.186 4.6841 41.0389 5.83121 41.0389 7.2361C41.0389 8.64099 42.186 9.7881 43.5909 9.7881C44.9958 9.7881 46.1429 8.64099 46.1429 7.2361C46.1429 5.83121 44.9958 4.6841 43.5909 4.6841Z" fill="#4AAB3D"/>
<path d="M43.5917 2.69918C43.2308 2.69918 42.9473 2.41562 42.9473 2.05473V1.21695C42.9473 0.856065 43.2308 0.57251 43.5917 0.57251C43.9526 0.57251 44.2362 0.856065 44.2362 1.21695V2.05473C44.2362 2.41562 43.9397 2.69918 43.5917 2.69918Z" fill="#4AAB3D"/>
<path d="M39.9307 4.22011C39.7631 4.22011 39.5956 4.15566 39.4796 4.02677L38.8867 3.43388C38.6289 3.17611 38.6289 2.77655 38.8867 2.51877C39.1445 2.261 39.544 2.261 39.8018 2.51877L40.3947 3.11166C40.6525 3.36944 40.6525 3.769 40.3947 4.02677C40.2529 4.15566 40.0982 4.22011 39.9307 4.22011Z" fill="#4AAB3D"/>
<path d="M38.41 7.88044H37.5722C37.2113 7.88044 36.9277 7.59689 36.9277 7.236C36.9277 6.87511 37.2113 6.59155 37.5722 6.59155H38.41C38.7708 6.59155 39.0544 6.87511 39.0544 7.236C39.0544 7.59689 38.7708 7.88044 38.41 7.88044Z" fill="#4AAB3D"/>
<path d="M39.3378 12.121C39.1702 12.121 39.0027 12.0565 38.8867 11.9277C38.6289 11.6699 38.6289 11.2703 38.8867 11.0125L39.4796 10.4197C39.7374 10.1619 40.1369 10.1619 40.3947 10.4197C40.6525 10.6774 40.6525 11.077 40.3947 11.3348L39.8018 11.9277C39.6729 12.0565 39.5054 12.121 39.3378 12.121Z" fill="#4AAB3D"/>
<path d="M43.5917 13.8867C43.2308 13.8867 42.9473 13.6031 42.9473 13.2422V12.4045C42.9473 12.0436 43.2308 11.76 43.5917 11.76C43.9526 11.76 44.2362 12.0436 44.2362 12.4045V13.2422C44.2362 13.5902 43.9397 13.8867 43.5917 13.8867Z" fill="#4AAB3D"/>
<path d="M47.8311 12.121C47.6635 12.121 47.496 12.0565 47.38 11.9277L46.7871 11.3348C46.5293 11.077 46.5293 10.6774 46.7871 10.4197C47.0449 10.1619 47.4444 10.1619 47.7022 10.4197L48.2951 11.0125C48.5529 11.2703 48.5529 11.6699 48.2951 11.9277C48.1662 12.0565 47.9986 12.121 47.8311 12.121Z" fill="#4AAB3D"/>
<path d="M49.5975 7.88044H48.7597C48.3988 7.88044 48.1152 7.59689 48.1152 7.236C48.1152 6.87511 48.3988 6.59155 48.7597 6.59155H49.5975C49.9583 6.59155 50.2419 6.87511 50.2419 7.236C50.2419 7.59689 49.9455 7.88044 49.5975 7.88044Z" fill="#4AAB3D"/>
<path d="M47.2519 4.22011C47.0843 4.22011 46.9168 4.15566 46.8008 4.02677C46.543 3.769 46.543 3.36944 46.8008 3.11166L47.3936 2.51877C47.6514 2.261 48.051 2.261 48.3088 2.51877C48.5665 2.77655 48.5665 3.17611 48.3088 3.43388L47.7159 4.02677C47.5741 4.15566 47.4065 4.22011 47.2519 4.22011Z" fill="#4AAB3D"/>
</svg>
