<svg width="36" height="40" viewBox="0 0 36 40" fill="none" xmlns="http://www.w3.org/2000/svg">
<path d="M35.0888 30.7885L30.9234 26.5998C31.0756 26.4425 31.2232 26.2871 31.3608 26.1398C31.5196 25.9704 31.6731 25.8071 31.8207 25.6558C32.1833 25.3611 34.2015 23.6364 34.2729 21.7777C34.3014 21.035 34.0122 20.3577 33.4359 19.819C33.0243 19.4343 32.5505 19.215 32.037 19.1577C32.043 19.097 32.0529 19.0363 32.0549 18.975C32.0807 18.239 31.7935 17.5696 31.2251 17.0383C30.709 16.5556 30.0751 16.3263 29.3836 16.377C29.2321 16.3876 29.0826 16.4156 28.9337 16.451C29.0197 16.1783 29.0786 15.9016 29.0905 15.625C29.119 14.9683 28.9006 14.3709 28.4579 13.8996C27.6354 13.0229 26.7938 12.9196 26.2333 12.9896C25.9058 13.0296 25.5934 13.1382 25.2977 13.2869C25.301 13.1169 25.293 12.9489 25.2626 12.7842C25.1488 12.1736 24.7967 11.6796 24.2429 11.3542C22.2049 10.1595 20.1669 12.2316 19.2034 13.7589C18.8322 13.7049 18.4676 13.6863 18.1116 13.7023L16.2436 11.8222C17.5439 8.66617 16.8246 4.98345 14.3849 2.51941C11.6647 -0.219967 7.45498 -0.791309 4.1498 1.13005C3.97114 1.23339 3.85137 1.41473 3.82424 1.62006C3.79712 1.82607 3.86725 2.03274 4.01217 2.1794L8.61626 6.81481L6.17989 9.26818L1.771 4.82878C1.61616 4.67278 1.39581 4.60278 1.18076 4.64544C0.965711 4.68544 0.785068 4.83078 0.697062 5.03278C-0.689195 8.2155 0.034041 12.0149 2.49423 14.4849C4.93788 16.9456 8.59641 17.6743 11.7335 16.3643L12.8928 17.5316C12.0028 19.6103 12.3873 21.7544 12.6076 22.6151L10.5305 24.9658L10.033 24.4324C9.90789 24.2984 9.7332 24.2224 9.55058 24.2224C9.55058 24.2224 9.55057 24.2224 9.54991 24.2224C9.36728 24.2224 9.1926 24.2984 9.06754 24.4331L5.98469 27.7485C5.7478 28.0038 5.74648 28.4005 5.98204 28.6565L16.192 39.786C16.3144 39.9193 16.4858 39.9967 16.6665 40H16.6777C16.8544 40 17.0231 39.9293 17.1475 39.8027L20.4037 36.4906C20.6545 36.2353 20.6598 35.8266 20.4156 35.5646L20.1424 35.2719C20.6142 34.5686 21.7351 33.2039 23.1571 33.5452C24.4507 33.8512 25.7959 33.2072 26.9962 31.7279L30.5754 35.3299C31.1808 35.9433 31.9775 36.2506 32.7742 36.2506C33.5603 36.2506 34.3464 35.9513 34.9465 35.3506L35.108 35.1879C35.6876 34.6046 36.0046 33.8239 36 32.9899C35.9966 32.1579 35.6724 31.3765 35.0888 30.7885ZM32.536 20.7977C32.8324 21.0744 32.9641 21.3684 32.9502 21.725C32.9085 22.8431 31.5031 24.2071 30.9651 24.6384C30.9446 24.6544 30.9247 24.6731 30.9069 24.6911C30.7441 24.8564 30.5747 25.0371 30.3993 25.2244C28.8384 26.8878 27.9471 27.5611 27.1041 26.8758C26.4814 26.3711 26.6588 25.7218 26.8354 25.3571C27.7301 24.8878 28.538 24.0277 29.1765 23.3397C29.3333 23.1704 29.4855 23.0064 29.6318 22.8551C29.8892 22.6424 30.9856 21.6917 31.6122 20.4897C31.9656 20.4484 32.266 20.545 32.536 20.7977ZM29.4802 17.707C29.8045 17.6877 30.0744 17.7823 30.3252 18.017C30.6151 18.287 30.7441 18.577 30.7322 18.9277C30.6945 20.0404 29.3022 21.4097 28.7696 21.843C28.7497 21.859 28.7299 21.877 28.712 21.8957C28.5512 22.0611 28.3831 22.2424 28.2098 22.4297C26.668 24.0931 25.7886 24.7684 24.9622 24.1017C24.19 23.4791 24.6677 22.6251 24.769 22.4644C24.7987 22.4191 24.8093 22.3684 24.8265 22.3191C25.868 22.3031 26.4192 21.8184 26.6356 21.5624C27.1352 20.973 27.2371 20.1564 26.9817 19.369C27.1398 19.211 27.3363 19.0037 27.5474 18.7583C28.1105 18.2563 28.8344 17.753 29.4802 17.707ZM26.3947 14.3136C26.7746 14.2663 27.1372 14.4316 27.4978 14.8156C27.6963 15.0269 27.7823 15.2656 27.7698 15.5649C27.7387 16.287 27.1603 17.1536 26.6032 17.8157C26.4742 17.9337 26.3544 18.0483 26.2485 18.155C26.228 18.133 26.2121 18.109 26.1909 18.087C25.4935 17.3816 24.8192 16.7723 24.1622 16.239C24.2489 16.111 24.3448 15.9623 24.4434 15.7956C24.9516 15.1383 25.6814 14.3989 26.3947 14.3136ZM23.5786 12.5076C23.8016 12.6382 23.92 12.7996 23.963 13.0289C24.0642 13.5709 23.7334 14.3703 23.3456 15.0409C23.2424 15.1776 23.1491 15.3069 23.0704 15.4236C22.2115 14.8343 21.3844 14.3983 20.5824 14.1123C21.1845 13.3029 22.4722 11.8562 23.5786 12.5076ZM12.3476 15.0969C12.1484 14.8956 11.8453 14.8436 11.5926 14.9683C8.87101 16.2896 5.59098 15.7176 3.42987 13.5409C1.59234 11.6956 0.902188 8.97618 1.57513 6.51614L5.71273 10.6815C5.97145 10.9422 6.38965 10.9422 6.64837 10.6815L10.021 7.28548C10.1454 7.16015 10.2149 6.99148 10.2149 6.81414C10.2149 6.63681 10.1454 6.46747 10.021 6.3428L5.59892 1.89073C8.24306 0.769382 11.3636 1.36206 13.4486 3.46076C15.6044 5.63813 16.1715 8.94084 14.8594 11.6789C14.737 11.9342 14.7886 12.2402 14.9877 12.4402L16.546 14.0089C15.6772 14.3269 14.864 14.8816 14.113 15.6736C13.9105 15.887 13.7365 16.1083 13.575 16.3323L12.3476 15.0969ZM16.6956 38.3693L7.37293 28.2071L9.5519 25.8631L19.0148 36.0093L16.6956 38.3693ZM23.4621 32.2472C21.4307 31.7665 19.9439 33.2979 19.2213 34.2832L11.441 25.9411L13.8397 23.2264C13.9978 23.0471 14.0481 22.7944 13.9714 22.5671C13.9595 22.5317 12.8002 18.9877 15.0698 16.595C16.2827 15.3163 17.618 14.8263 19.1558 15.0936C20.9252 15.4023 22.9771 16.7263 25.2527 19.0283C25.8561 19.6377 25.9177 20.355 25.6285 20.6964C25.1342 21.281 23.4839 21.095 21.0271 19.3077C20.1688 18.6823 19.4966 18.7917 19.0843 18.9923C17.5776 19.7263 17.3599 22.8944 17.3315 23.5211C17.3149 23.8891 17.5968 24.2011 17.9621 24.2178C18.3167 24.2178 18.6363 23.9504 18.6535 23.5824C18.6569 23.5057 18.6655 23.4264 18.6708 23.3484L26.056 30.7812C25.4373 31.5745 24.4791 32.4859 23.4621 32.2472ZM34.173 34.2459L34.0135 34.4066C33.3247 35.0946 32.2045 35.0873 31.5136 34.3879L18.9215 21.715C19.1061 20.9524 19.3662 20.3364 19.6613 20.193C19.8208 20.1197 20.0722 20.257 20.2535 20.3884C21.5472 21.3304 22.6039 21.8497 23.4634 22.107C23.1141 22.8971 22.9513 24.1884 24.1364 25.1424C24.5539 25.4784 24.9681 25.6398 25.3744 25.6844C25.2738 26.4391 25.475 27.2645 26.275 27.9131C26.7792 28.3225 27.2801 28.4898 27.7671 28.4898C28.5459 28.4898 29.287 28.0571 29.9534 27.5071L34.1538 31.7305C34.4893 32.0685 34.6759 32.5185 34.6785 32.9959C34.6805 33.4719 34.5012 33.9152 34.173 34.2459Z" fill="white"/>
</svg>
