<svg width="46" height="46" viewBox="0 0 46 46" fill="none" xmlns="http://www.w3.org/2000/svg">
<path d="M23.0005 10.5609C24.9986 10.5609 26.6241 8.93533 26.6241 6.9373C26.6241 4.93926 24.9986 3.31372 23.0005 3.31372C21.0025 3.31372 19.377 4.93926 19.377 6.9373C19.377 8.93533 21.0025 10.5609 23.0005 10.5609ZM23.0005 4.66138C24.2555 4.66138 25.2765 5.68236 25.2765 6.9373C25.2765 8.19224 24.2555 9.21322 23.0005 9.21322C21.7456 9.21322 20.7246 8.19224 20.7246 6.9373C20.7246 5.68236 21.7456 4.66138 23.0005 4.66138Z" fill="white"/>
<path d="M23 2.124C23.3721 2.124 23.6738 1.82239 23.6738 1.45017V0.673828C23.6738 0.301605 23.3721 0 23 0C22.6279 0 22.3262 0.301605 22.3262 0.673828V1.45017C22.3262 1.8223 22.6279 2.124 23 2.124Z" fill="white"/>
<path d="M18.6437 3.53384C18.7752 3.66537 18.9477 3.73114 19.1201 3.73114C19.2925 3.73114 19.465 3.66537 19.5966 3.53384C19.8597 3.2706 19.8597 2.84402 19.5966 2.58087L19.0477 2.03201C18.7846 1.76895 18.3579 1.76895 18.0948 2.03201C17.8317 2.29526 17.8317 2.72183 18.0948 2.98499L18.6437 3.53384Z" fill="white"/>
<path d="M16.7373 7.61108H17.5136C17.8857 7.61108 18.1874 7.30948 18.1874 6.93726C18.1874 6.56503 17.8857 6.26343 17.5136 6.26343H16.7373C16.3652 6.26343 16.0635 6.56503 16.0635 6.93726C16.0635 7.30948 16.3652 7.61108 16.7373 7.61108Z" fill="white"/>
<path d="M18.6437 10.3406L18.0948 10.8895C17.8317 11.1527 17.8317 11.5793 18.0948 11.8424C18.2264 11.974 18.3989 12.0397 18.5713 12.0397C18.7437 12.0397 18.9162 11.974 19.0477 11.8424L19.5966 11.2936C19.8597 11.0303 19.8597 10.6038 19.5966 10.3406C19.3335 10.0775 18.9068 10.0775 18.6437 10.3406Z" fill="white"/>
<path d="M22.3262 12.4243V13.2007C22.3262 13.5729 22.6279 13.8745 23 13.8745C23.3721 13.8745 23.6738 13.5729 23.6738 13.2007V12.4243C23.6738 12.0521 23.3721 11.7505 23 11.7505C22.6279 11.7505 22.3262 12.0522 22.3262 12.4243Z" fill="white"/>
<path d="M27.3563 10.3406C27.0932 10.0775 26.6665 10.0775 26.4034 10.3406C26.1403 10.6038 26.1403 11.0304 26.4034 11.2936L26.9523 11.8424C27.2155 12.1056 27.6421 12.1055 27.9052 11.8424C28.1683 11.5792 28.1683 11.1526 27.9052 10.8895L27.3563 10.3406Z" fill="white"/>
<path d="M27.8135 6.93726C27.8135 7.30948 28.1152 7.61108 28.4873 7.61108H29.2636C29.6357 7.61108 29.9374 7.30948 29.9374 6.93726C29.9374 6.56503 29.6357 6.26343 29.2636 6.26343H28.4873C28.1152 6.26343 27.8135 6.56503 27.8135 6.93726Z" fill="white"/>
<path d="M26.8799 3.73114C27.0523 3.73114 27.2248 3.66537 27.3563 3.53384L27.9052 2.98499C28.1683 2.72174 28.1683 2.29517 27.9052 2.03201C27.642 1.76895 27.2153 1.76895 26.9523 2.03201L26.4034 2.58087C26.1403 2.84411 26.1403 3.27069 26.4034 3.53384C26.535 3.66537 26.7074 3.73114 26.8799 3.73114Z" fill="white"/>
<path d="M42.8244 41.5004H40.1253C39.5985 41.5004 39.1058 41.2412 38.8395 40.8238C38.2413 39.8867 37.293 39.2642 36.2235 39.0784V38.0347H36.4609C38.646 38.0347 40.4238 36.257 40.4238 34.0719V32.836C40.4238 32.1561 39.8295 31.6246 39.1502 31.707C37.6019 31.8972 36.2962 32.8068 35.5494 34.0749C34.8025 32.8067 33.497 31.8972 31.9487 31.7071C31.2741 31.6234 30.6751 32.1531 30.6751 32.836V34.0718C30.6751 36.2569 32.4528 38.0346 34.6378 38.0346H34.8758V39.0782C33.8053 39.2639 32.8568 39.8867 32.2594 40.8239C31.9933 41.2411 31.5007 41.5002 30.9738 41.5002H25.6596V29.1602H27.1736C27.1767 29.1602 27.1798 29.1607 27.1829 29.1607C27.1858 29.1607 27.1888 29.1603 27.1917 29.1602H35.0689C35.071 29.1602 35.0732 29.1607 35.0754 29.1607C35.0779 29.1607 35.0804 29.1602 35.0828 29.1602H43.336C43.7277 29.1602 44.0893 28.9476 44.2797 28.6054C44.4701 28.2631 44.4602 27.8438 44.2538 27.5111L37.6044 16.7867C37.3533 16.3818 36.919 16.1401 36.4426 16.1401H9.55785C9.0815 16.1401 8.6471 16.3818 8.39608 16.7868L7.89232 17.5993C7.6962 17.9156 7.79359 18.331 8.10993 18.527C8.42618 18.7233 8.84161 18.6258 9.03765 18.3094L9.54141 17.497C9.545 17.4912 9.55111 17.4877 9.55785 17.4877H13.4015L12.1046 21.9763H6.76416L7.37321 20.9939C7.56934 20.6775 7.47194 20.2622 7.15561 20.0661C6.83918 19.8698 6.42392 19.9675 6.22779 20.2837L1.74674 27.5112C1.54037 27.844 1.5304 28.2633 1.72087 28.6056C1.91134 28.9478 2.27296 29.1604 2.6645 29.1604H10.9177C10.9202 29.1604 10.9228 29.1609 10.9252 29.1609C10.9273 29.1609 10.9295 29.1604 10.9316 29.1604H18.8089C18.8118 29.1604 18.8147 29.1608 18.8176 29.1608C18.8207 29.1608 18.8238 29.1605 18.8269 29.1604H20.3409V41.5004H15.0267C14.4999 41.5004 14.0073 41.2412 13.7413 40.8243C13.1437 39.8867 12.1953 39.2641 11.1247 39.0784V38.0348H11.3627C13.5478 38.0348 15.3255 36.2571 15.3255 34.072V32.836C15.3255 32.5101 15.1854 32.1993 14.9412 31.9834C14.6979 31.7682 14.3741 31.6679 14.0519 31.707C12.5036 31.8972 11.1979 32.8068 10.4511 34.0749C9.7042 32.8067 8.39868 31.8972 6.85041 31.7071C6.52895 31.6672 6.20434 31.7681 5.96104 31.9834C5.71685 32.1993 5.57678 32.5101 5.57678 32.836V34.0718C5.57678 36.2569 7.35452 38.0346 9.53961 38.0346H9.77707V39.0783C8.70757 39.2641 7.75918 39.8866 7.16082 40.824C6.8947 41.2412 6.40209 41.5003 5.87524 41.5003H3.17616C2.24223 41.5003 1.48242 42.2601 1.48242 43.1941V44.9614C1.48242 45.534 1.94835 45.9999 2.52093 45.9999H31.0461C31.4183 45.9999 31.72 45.6983 31.72 45.3261C31.72 44.9538 31.4183 44.6522 31.0461 44.6522H2.83017V43.1942C2.83017 43.0033 2.98542 42.8481 3.17625 42.8481H5.87533C6.87278 42.8481 7.77813 42.3624 8.29689 41.549C8.76956 40.8087 9.57483 40.3667 10.451 40.3667C11.3279 40.3667 12.1332 40.8085 12.6051 41.5488C13.124 42.3624 14.0294 42.8481 15.0268 42.8481H30.9739C31.9713 42.8481 32.8767 42.3624 33.3957 41.5486C33.8675 40.8085 34.6727 40.3667 35.5497 40.3667C36.4258 40.3667 37.2311 40.8087 37.7036 41.5488C38.2226 42.3624 39.1279 42.8481 40.1254 42.8481H42.8245C43.0153 42.8481 43.1706 43.0033 43.1706 43.1942V44.6522H34.2126C33.8405 44.6522 33.5388 44.9538 33.5388 45.3261C33.5388 45.6983 33.8405 45.9999 34.2126 45.9999H43.4797C44.0524 45.9999 44.5182 45.534 44.5182 44.9614V43.1941C44.518 42.2602 43.7583 41.5004 42.8244 41.5004ZM13.9779 33.0822V34.0719C13.9779 35.514 12.8047 36.687 11.3628 36.687H11.1251V36.5447C11.125 34.847 12.3354 33.399 13.9779 33.0822ZM6.92453 34.0718V33.0822C8.56687 33.3989 9.77734 34.847 9.77734 36.5446V36.687H9.53961C8.09762 36.687 6.92453 35.5139 6.92453 34.0718ZM19.5616 27.8127L20.0112 23.324H25.9895L26.439 27.8127H19.5616ZM11.8211 27.8127L13.118 23.324H18.6567L18.2072 27.8127H11.8211ZM25.4049 17.4877L25.8544 21.9763H20.1461L20.5956 17.4877H25.4049ZM31.1963 17.4877L32.4932 21.9763H27.2089L26.7594 17.4877H31.1963ZM27.7933 27.8127L27.3439 23.324H32.8825L34.1794 27.8127H27.7933ZM35.5822 27.8127L34.2853 23.324H40.0719L42.855 27.8127H35.5822ZM36.4591 17.4969L39.2364 21.9763H33.8959L32.599 17.4877H36.4426C36.4493 17.4877 36.4556 17.4913 36.4591 17.4969ZM14.8043 17.4877H19.2412L18.7917 21.9763H13.5074L14.8043 17.4877ZM5.92861 23.324H11.7153L10.4184 27.8127H3.14552L5.92861 23.324ZM21.6886 29.1604H24.312V41.5004H21.6886V29.1604ZM39.076 33.0822V34.0719C39.076 35.514 37.9028 36.687 36.4608 36.687H36.2231V36.5447C36.2232 34.847 37.4336 33.399 39.076 33.0822ZM32.0226 34.0718V33.0822C33.665 33.3989 34.8755 34.847 34.8755 36.5446V36.687H34.6377C33.1958 36.687 32.0226 35.5139 32.0226 34.0718Z" fill="white"/>
</svg>
