<svg width="51" height="36" viewBox="0 0 51 36" fill="none" xmlns="http://www.w3.org/2000/svg">
<path d="M50.1691 18.2293L35.9942 4.14235C35.9658 4.11417 35.9446 4.10087 35.921 4.08678C35.7855 3.97957 35.6186 3.91304 35.4374 3.91304H33.401L35.9942 1.33591C36.2194 1.11209 36.2871 0.775565 36.1651 0.482869C36.0438 0.190174 35.7564 0 35.4374 0H14.9626C14.7531 0 14.5531 0.0821741 14.4058 0.229305L0.230885 14.3163C0.0056615 14.5401 -0.0620631 14.8766 0.0599987 15.1693C0.18206 15.462 0.469496 15.6522 0.787644 15.6522H2.82411L0.230885 18.2293C0.0056615 18.4531 -0.0620631 18.7897 0.0599987 19.0823C0.18206 19.375 0.469496 19.5652 0.787644 19.5652H2.36263V35.2174C2.36263 35.6502 2.71465 36 3.15013 36H47.2499C47.6853 36 48.0374 35.6502 48.0374 35.2174V19.5652H49.6123C49.9305 19.5652 50.2179 19.375 50.34 19.0823C50.4621 18.7897 50.3943 18.4531 50.1691 18.2293ZM28.024 7.04348H23.1635L28.676 1.56522H33.5364L28.024 7.04348ZM8.98862 14.087L14.5011 8.6087H19.3615L13.849 14.087H8.98862ZM26.449 1.56522L20.9365 7.04348H16.0761L21.5885 1.56522H26.449ZM21.5885 8.6087H26.449L20.9365 14.087H16.0761L21.5885 8.6087ZM15.2886 1.56522H19.3615L13.849 7.04348H9.77611L15.2886 1.56522ZM8.20112 8.6087H12.274L6.76158 14.087H2.68866L8.20112 8.6087ZM5.05114 15.6522H21.2625C21.472 15.6522 21.6712 15.5692 21.8193 15.4229L31.826 5.47826H33.5364L20.9365 18H2.68866L5.05114 15.6522ZM3.93763 19.5652H22.8375V34.4348H3.93763V19.5652ZM32.2875 34.4348V23.4783H38.5874V34.4348H32.2875ZM47.2499 18C46.8144 18 46.4624 18.3498 46.4624 18.7826V34.4348H40.1624V22.6957C40.1624 22.2629 39.8104 21.913 39.3749 21.913H31.5C31.0645 21.913 30.7125 22.2629 30.7125 22.6957V34.4348H24.4125V18.7826C24.4125 18.3498 24.0605 18 23.625 18H23.1635L35.4374 5.80226L47.7113 18H47.2499Z" fill="white"/>
<path d="M35.4374 11.7391C33.2663 11.7391 31.5 13.4945 31.5 15.6522C31.5 17.8098 33.2663 19.5652 35.4374 19.5652C37.6086 19.5652 39.3749 17.8098 39.3749 15.6522C39.3749 13.4945 37.6086 11.7391 35.4374 11.7391ZM35.4374 18C34.1349 18 33.0749 16.9466 33.0749 15.6522C33.0749 14.3577 34.1349 13.3043 35.4374 13.3043C36.74 13.3043 37.7999 14.3577 37.7999 15.6522C37.7999 16.9474 36.7407 18 35.4374 18Z" fill="white"/>
<path d="M20.475 21.913H6.30011C5.86463 21.913 5.51262 22.2629 5.51262 22.6957V30.5217C5.51262 30.9545 5.86463 31.3043 6.30011 31.3043H20.475C20.9105 31.3043 21.2625 30.9545 21.2625 30.5217V22.6957C21.2625 22.2637 20.9105 21.913 20.475 21.913ZM7.08761 23.4783H12.6001V29.7391H7.08761V23.4783ZM19.6875 29.7391H14.1751V23.4783H19.6875V29.7391Z" fill="white"/>
</svg>
